<?xml version="1.0" standalone="no"?>
<!DOCTYPE svg PUBLIC "-//W3C//DTD SVG 20010904//EN"
 "http://www.w3.org/TR/2001/REC-SVG-20010904/DTD/svg10.dtd">
<svg version="1.0" xmlns="http://www.w3.org/2000/svg"
 width="152.000000pt" height="152.000000pt" viewBox="0 0 152.000000 152.000000"
 preserveAspectRatio="xMidYMid meet">

<g transform="translate(0.000000,152.000000) scale(0.100000,-0.100000)"
fill="#000000" stroke="none">
<path d="M560 1457 c-98 -27 -170 -62 -255 -123 -358 -255 -399 -787 -86
-1095 235 -230 573 -281 871 -133 133 66 262 203 328 349 99 219 76 496 -57
690 -105 154 -233 249 -411 306 -46 14 -101 22 -185 25 -104 3 -132 1 -205
-19z m2 -484 l3 -298 74 77 c66 69 91 85 91 58 0 -5 -14 -25 -30 -44 -36 -40
-33 -54 22 -111 38 -40 50 -75 24 -75 -8 0 -31 22 -52 50 -20 27 -44 52 -51
54 -8 3 -33 -14 -58 -39 -24 -25 -46 -45 -49 -45 -3 0 -6 151 -6 335 0 290 2
335 15 335 13 0 15 -42 17 -297z m-108 31 c9 -3 16 -15 16 -25 0 -14 -7 -19
-30 -19 -22 0 -30 5 -30 18 0 30 13 38 44 26z m394 -22 c4 -28 -24 -40 -45
-19 -14 13 -14 19 -3 32 18 22 44 15 48 -13z m110 2 c4 -27 -26 -40 -46 -20
-13 13 -13 18 -2 31 18 21 44 15 48 -11z m119 10 c7 -20 -22 -45 -43 -37 -14
5 -19 35 -7 46 12 13 44 7 50 -9z m-622 -289 c0 -123 -1 -130 -20 -130 -19 0
-20 8 -23 119 -3 133 0 149 25 144 16 -3 18 -17 18 -133z m498 -16 c4 -79 6
-201 4 -270 -3 -119 -5 -128 -29 -154 -19 -20 -36 -28 -64 -29 -50 -1 -52 22
-4 38 55 18 61 39 59 236 -2 295 0 332 14 328 8 -3 14 -48 20 -149z m112 16
c0 -123 -1 -130 -20 -130 -19 0 -20 8 -23 119 -3 133 0 149 25 144 16 -3 18
-17 18 -133z m-225 -5 c0 -123 -1 -130 -20 -130 -19 0 -20 7 -20 130 0 123 1
130 20 130 19 0 20 -7 20 -130z"/>
</g>
</svg>
