<?xml version="1.0" standalone="no"?>
<!DOCTYPE svg PUBLIC "-//W3C//DTD SVG 20010904//EN"
 "http://www.w3.org/TR/2001/REC-SVG-20010904/DTD/svg10.dtd">
<svg version="1.0" xmlns="http://www.w3.org/2000/svg"
 width="200.000000pt" height="200.000000pt" viewBox="0 0 200.000000 200.000000"
 preserveAspectRatio="xMidYMid meet">

<g transform="translate(0.000000,200.000000) scale(0.100000,-0.100000)"
fill="#000000" stroke="none">
<path d="M180 1126 l0 -64 50 -31 c28 -17 50 -33 50 -35 0 -3 -22 -17 -50 -33
l-50 -28 0 -62 0 -63 35 0 c35 0 35 1 35 43 0 41 2 44 54 75 48 29 62 32 131
32 69 0 83 -3 131 -32 52 -31 54 -34 54 -75 0 -42 0 -43 35 -43 l35 0 0 63 0
62 -50 28 c-28 16 -50 30 -50 33 0 2 23 18 50 35 l50 31 0 64 0 64 -34 0 c-34
0 -35 -1 -38 -47 -3 -45 -5 -48 -58 -80 -48 -29 -64 -33 -125 -33 -61 0 -77 4
-125 33 -53 32 -55 35 -58 80 -3 46 -4 47 -38 47 l-34 0 0 -64z"/>
<path d="M749 1178 c-1 -7 0 -44 1 -81 1 -65 3 -70 38 -102 34 -32 42 -34 105
-35 l67 0 0 -75 0 -75 40 0 40 0 0 75 0 75 68 0 c63 1 69 3 105 35 37 35 37
36 37 115 l0 80 -35 0 -35 0 0 -80 0 -80 -180 0 -179 0 -3 78 -3 77 -32 3
c-22 2 -33 -1 -34 -10z"/>
<path d="M1310 1155 l0 -35 222 0 c128 0 218 -4 212 -9 -5 -5 -105 -46 -221
-92 l-213 -83 0 -63 0 -62 233 -3 c290 -4 279 -5 275 35 l-3 32 -220 3 -220 3
220 88 220 88 3 67 3 66 -256 0 -255 0 0 -35z"/>
</g>
</svg>
